<svg width="512" height="512" viewBox="0 0 512 512" fill="none" xmlns="http://www.w3.org/2000/svg" xmlns:xlink="http://www.w3.org/1999/xlink" class=""><rect id="«r39»" width="512" height="512" x="0" y="0" rx="" fill="url(#«r3a»)" stroke="#FFFFFF" stroke-width="0" stroke-opacity="100%" paint-order="stroke"></rect><clipPath id="clip"><use xlink:href="#«r39»"></use></clipPath><defs><radialGradient id="«r3a»" cx="50%" cy="50%" r="100%" fx="50%" fy="0%" gradientUnits="objectBoundingBox"><stop stop-color="#68AEFF"></stop><stop offset="1" stop-color="#003EB7"></stop></radialGradient><radialGradient id="«r3b»" cx="0" cy="0" r="1" gradientUnits="userSpaceOnUse" gradientTransform="translate(256) rotate(90) scale(512)"><stop stop-color="white"></stop><stop offset="1" stop-color="white" stop-opacity="0"></stop></radialGradient></defs><svg xmlns="http://www.w3.org/2000/svg" width="352" height="352" viewBox="0 0 24 24" x="80" y="80" alignment-baseline="middle" style="color: rgb(255, 255, 255);"><g fill="none"><path d="m12.594 23.258l-.012.002l-.071.035l-.02.004l-.014-.004l-.071-.036q-.016-.004-.024.006l-.004.01l-.017.428l.005.02l.01.013l.104.074l.015.004l.012-.004l.104-.074l.012-.016l.004-.017l-.017-.427q-.004-.016-.016-.018m.264-.113l-.014.002l-.184.093l-.01.01l-.003.011l.018.43l.005.012l.008.008l.201.092q.019.005.029-.008l.004-.014l-.034-.614q-.005-.019-.02-.022m-.715.002a.02.02 0 0 0-.027.006l-.006.014l-.034.614q.001.018.017.024l.015-.002l.201-.093l.01-.008l.003-.011l.018-.43l-.003-.012l-.01-.01z"></path><path fill="#fff" d="M9.107 5.448c.598-1.75 3.016-1.803 3.725-.159l.06.16l.807 2.36a4 4 0 0 0 2.276 2.411l.217.081l2.36.806c1.75.598 1.803 3.016.16 3.725l-.16.06l-2.36.807a4 4 0 0 0-2.412 2.276l-.081.216l-.806 2.361c-.598 1.75-3.016 1.803-3.724.16l-.062-.16l-.806-2.36a4 4 0 0 0-2.276-2.412l-.216-.081l-2.36-.806c-1.751-.598-1.804-3.016-.16-3.724l.16-.062l2.36-.806A4 4 0 0 0 8.22 8.025l.081-.216zM11 6.094l-.806 2.36a6 6 0 0 1-3.49 3.649l-.25.091l-2.36.806l2.36.806a6 6 0 0 1 3.649 3.49l.091.25l.806 2.36l.806-2.36a6 6 0 0 1 3.49-3.649l.25-.09l2.36-.807l-2.36-.806a6 6 0 0 1-3.649-3.49l-.09-.25zM19 2a1 1 0 0 1 .898.56l.048.117l.35 1.026l1.027.35a1 1 0 0 1 .118 1.845l-.118.048l-1.026.35l-.35 1.027a1 1 0 0 1-1.845.117l-.048-.117l-.35-1.026l-1.027-.35a1 1 0 0 1-.118-1.845l.118-.048l1.026-.35l.35-1.027A1 1 0 0 1 19 2"></path></g></svg></svg>